# xmcd
#
# Track frame offsets:
# 150
# 17522
# 33610
# 48915
# 68092
# 80125
# 92150
# 107772
# 122135
# 135902
# 148567
# 160402
# 173275
# 184540
#
# Disc length: 2669 seconds
#
#
# Revision: 0
# Processed by: cddbd v1.5.2PL0 Copyright (c) Steve Scherf et al.
# Submitted via: FreeRIP 2.951 
#
DISCID=b00a6b0e
DTITLE=magoas de boiaderio  - magoas de boiadeiro 
DYEAR=2007
DGENRE=sertanejos
TTITLE0=magoas de boiaderio
TTITLE1=pombinha
TTITLE2=fuscão preto
TTITLE3=chitanzinho e chororó
TTITLE4=joao de barro
TTITLE5=feitiço espanhol
TTITLE6=tu solo tu
TTITLE7=o ipe e o  prisioneiro
TTITLE8=piracicaba
TTITLE9=sepultura larga
TTITLE10=saudade d matao
TTITLE11=castigo do fazendeiro
TTITLE12=canta com a natureza
TTITLE13=barrante de ouro
EXTD=
EXTT0=
EXTT1=
EXTT2=
EXTT3=
EXTT4=
EXTT5=
EXTT6=
EXTT7=
EXTT8=
EXTT9=
EXTT10=
EXTT11=
EXTT12=
EXTT13=
PLAYORDER=
